<svg width="92" height="17" viewBox="0 0 92 17" fill="none" xmlns="http://www.w3.org/2000/svg">
<path d="M0.000560968 0.631836C0.876805 0.694336 0.983951 0.915336 0.983951 1.19634V15.8038C0.983951 16.0848 0.876244 16.3028 0 16.3653V16.7453H7.22873V16.3653C6.35137 16.3028 6.24815 16.0848 6.24815 15.8038V1.19634C6.24815 0.915336 6.35137 0.694336 7.22873 0.631836V0.255336H0.000560968V0.631836ZM23.9492 0.631836C24.4041 0.664336 24.6846 0.819836 24.6846 1.19634V9.56484C22.2303 7.15034 16.1634 1.38584 16.1634 1.03834C16.1634 0.853336 16.3379 0.664336 17.144 0.631836V0.255336H8.69007V0.631836C9.56744 0.694336 9.67122 0.915336 9.67122 1.19634V15.8038C9.67122 16.0848 9.56744 16.3028 8.69007 16.3653V16.7453H15.3573V16.3653C14.4777 16.3028 14.3733 16.0848 14.3733 15.8038V5.96034C23.6322 15.2093 24.5113 15.6153 24.5113 16.0228C24.5113 16.2418 24.334 16.3658 23.7018 16.3658V16.7458H30.3678V16.3658C29.491 16.3033 29.3878 16.0853 29.3878 15.8043V1.19634C29.3878 0.915336 29.491 0.694336 30.3678 0.631836V0.255336H23.9492V0.631836ZM52.5241 8.50034C52.5241 3.01384 47.5455 0.0693359 41.5806 0.0693359C35.6163 0.0693359 30.6388 3.01384 30.6388 8.50034C30.6388 13.9843 35.6163 16.9308 41.5806 16.9308C47.5455 16.9308 52.5241 13.9848 52.5241 8.50034ZM41.5806 13.1068C38.5329 13.1068 35.8273 11.4478 35.8273 8.50084C35.8273 5.55384 38.5329 3.89284 41.5806 3.89284C44.6335 3.89284 47.3329 5.55434 47.3329 8.50084C47.3329 11.4478 44.6335 13.1068 41.5806 13.1068ZM90.5263 15.4278C88.3514 10.6633 84.0386 1.28934 84.0386 1.03834C84.0386 0.727836 84.2849 0.664336 84.6725 0.631836V0.255336H75.5118V0.631836C75.8299 0.664336 76.2147 0.727836 76.2147 0.945336C76.2147 1.12034 71.1429 12.9368 70.1376 15.2698L63.8446 8.15334L70.2998 1.00834C70.4748 0.819836 70.7912 0.664336 71.176 0.631836V0.255336H63.1445V0.631836C63.4261 0.631836 63.8811 0.694336 63.8811 1.03834C63.8811 1.32184 61.1783 3.98734 60.6538 4.61284C60.3021 4.17634 57.4254 1.25684 57.4254 1.03834C57.4254 0.727836 57.707 0.664336 58.2685 0.631836V0.255336H50.0609V0.631836C50.2685 0.631836 50.5484 0.694336 50.8637 1.03834L57.3889 8.37484L50.3739 15.8343C50.0216 16.2083 49.8129 16.3653 49.5684 16.3653V16.7453H57.6683V16.3653C57.3878 16.3653 56.8279 16.3653 56.8279 16.0223C56.8279 15.5858 60.0906 12.5438 60.5792 11.9158C62.054 13.6403 64.0539 15.8658 64.0539 16.2078C64.0539 16.3648 63.7364 16.3648 63.3886 16.3648V16.7448H75.2661V16.3648C74.7752 16.3648 74.6344 16.2408 74.6344 16.0543C74.6344 15.8658 74.8482 15.4598 75.7575 13.1678H84.0695C84.2103 13.5768 85.2638 15.8658 85.2638 15.9903C85.2638 16.1808 85.0893 16.3333 84.5979 16.3653V16.7453H91.508V16.3653C91.0884 16.3653 90.8786 16.1808 90.5263 15.4278ZM76.6354 10.6633L79.7573 3.20184L83.1607 10.6633H76.6354Z" fill="#282B22"/>
</svg>
